<svg xmlns="http://www.w3.org/2000/svg" viewBox="0 0 791.65 404.08"><g id="Capa_2" data-name="Capa 2"><g id="Capa_2-2" data-name="Capa 2"><rect x="84.2" y="154.41" width="136.03" height="14" transform="translate(-69.6 156.9) rotate(-45.51)" style="fill:#203239"/><rect x="91.64" y="173.13" width="173.8" height="14" transform="translate(-75.08 178.84) rotate(-44.96)" style="fill:#203239"/><rect x="114.68" y="192.23" width="181.55" height="14" transform="translate(-80.7 203.62) rotate(-45)" style="fill:#203239"/><rect x="143.23" y="217.3" width="172.32" height="14" transform="translate(-91.42 227.88) rotate(-45)" style="fill:#203239"/><rect x="176.77" y="236.94" width="150.88" height="14" transform="translate(-98.62 249.77) rotate(-45)" style="fill:#203239"/><rect x="223.58" y="268.27" width="93.44" height="14" transform="translate(-115.47 271.74) rotate(-45)" style="fill:#203239"/><rect x="91.4" y="125.8" width="89.85" height="14" transform="translate(-53.98 135.29) rotate(-45)" style="fill:#203239"/><path d="M213,91.35H120.37v29H213c41.3,0,80.55,38.56,80.55,86.12V379.05A14.91,14.91,0,0,0,307.6,394,14.64,14.64,0,0,0,323,379.5v-173C323,142.89,270.56,91.35,213,91.35Z" style="fill:#203239"/><path d="M14.5,91.35A14.51,14.51,0,0,0,0,106.51c.35,7.83,7.11,13.84,14.94,13.84H81.37v-29Z" style="fill:#203239"/><path d="M286.35,299.8v9.46a9.85,9.85,0,0,1-9.92,9.77h-66.5C147,319,86.15,259.12,86.15,199.21V15A14.91,14.91,0,0,1,100.22,0,14.63,14.63,0,0,1,115.61,14.5V199.21c0,43.89,47.69,90.82,94.32,90.82h66.5A9.85,9.85,0,0,1,286.35,299.8Z" style="fill:#dd4a48"/><text transform="translate(350.8 271.31)" style="font-size:110px;fill:#203239;font-family:Ebrima-Bold, Ebrima;font-weight:700">SIGLAB</text><text transform="translate(368.45 389.59)" style="font-size:65px;fill:#203239;font-family:AgencyFB-Reg, Agency FB;letter-spacing:0.05500300480769231em">LABORATORIOS</text><path d="M338.27,290A10.53,10.53,0,0,0,328,299c-1.64,10.31.17,20,9.75,20H434a8.58,8.58,0,0,0,8.49-8.67V298.71A8.58,8.58,0,0,0,434,290Z" style="fill:#dd4a48"/><path d="M744,303.54A14.57,14.57,0,0,0,729.42,290h-264a7.62,7.62,0,0,0-7.54,7.72v13.57a7.62,7.62,0,0,0,7.54,7.71h264A14.57,14.57,0,0,0,744,305.52c0-.33,0-.66,0-1S744,303.87,744,303.54Z" style="fill:#dd4a48"/></g></g></svg>