<svg xmlns="http://www.w3.org/2000/svg" viewBox="0 0 667.79 459.7"><g id="Capa_2" data-name="Capa 2"><g id="Capa_2-2" data-name="Capa 2"><path d="M408.15,3.16C371-1.38,329-6.53,291.5,30.56s-32.76,79.2-28.6,116.35c4,36.16,7.53,67.38-20,94.66S184.12,265,148,260.61c-37.11-4.54-79.17-9.68-116.64,27.4S-1.4,367.21,2.76,404.37q.39,3.53.77,7a5.8,5.8,0,0,0,7.3,5l11.48-3.11A5.82,5.82,0,0,0,26.57,407c-.35-3.39-.73-6.74-1.1-10.06-4-36.15-7.53-67.37,20-94.65s58.75-23.47,94.86-19.05c37.11,4.54,79.18,9.69,116.65-27.4s32.76-79.2,28.6-116.35c-4-36.16-7.53-67.38,20-94.66s58.75-23.46,94.86-19.05l5.67.69A5.81,5.81,0,0,0,412.66,21l.59-11.78a5.8,5.8,0,0,0-5.1-6.06Z" style="fill:#dd4a48"/><path d="M195.2,249.36l-4.38,4.46a3.38,3.38,0,0,1-4.78,0l-63.38-62.3a14.07,14.07,0,0,1-5.21,1,14.38,14.38,0,1,1,13.9-10.66l63.81,62.71A3.38,3.38,0,0,1,195.2,249.36Z" style="fill:#565050"/><path d="M233.76,229.4l-4.51,4.41a3.34,3.34,0,0,1-4.73-.05l-81.76-83.48a14.4,14.4,0,1,1,9.43-13.51,14.12,14.12,0,0,1-.56,4l82.18,83.92A3.35,3.35,0,0,1,233.76,229.4Z" style="fill:#008e89"/><path d="M254.68,189.28l-4,4.08a3.65,3.65,0,0,1-5.15,0l-63.19-62.11A14.4,14.4,0,1,1,191,121.6l63.62,62.53A3.65,3.65,0,0,1,254.68,189.28Z" style="fill:#565050"/><path d="M251,126.23l-3.54,3.46a4,4,0,0,1-5.69-.06l-18.41-18.79a14.39,14.39,0,1,1,9.43-13.51,14.12,14.12,0,0,1-.56,4l18.82,19.23A4,4,0,0,1,251,126.23Z" style="fill:#008e89"/><path d="M128.84,245l-3.59,3.52a4,4,0,0,1-5.64-.06l-15.74-16.06a14.39,14.39,0,1,1,9.44-13.52,14.25,14.25,0,0,1-.57,4l16.16,16.5A4,4,0,0,1,128.84,245Z" style="fill:#008e89"/><path d="M192.11,363.08a14.39,14.39,0,0,1-28.78,0,14.06,14.06,0,0,1,.53-3.86l-59.69-60.41a3.6,3.6,0,0,1,0-5.1l4.06-4.13a3.6,3.6,0,0,1,5.1,0l59.35,60.07a14.4,14.4,0,0,1,19.47,13.47Z" style="fill:#565050"/><path d="M171.76,404.47a14.39,14.39,0,1,1-28.22-4l-82-83.7a3.65,3.65,0,0,1,0-5.16l4.08-4a3.65,3.65,0,0,1,5.16.06L152.41,391a14.42,14.42,0,0,1,19.35,13.52Z" style="fill:#008e89"/><path d="M132.45,423.36a14.39,14.39,0,0,1-28.78,0,14.21,14.21,0,0,1,.49-3.72L40.38,357a3.42,3.42,0,0,1,0-4.84l4.31-4.39a3.44,3.44,0,0,1,4.85,0L112.84,410a14.39,14.39,0,0,1,19.61,13.41Z" style="fill:#565050"/><path d="M89.71,445.31a14.39,14.39,0,1,1-28.22-4l-26.42-27a2.89,2.89,0,0,1,0-4.07l5.18-5.07a2.88,2.88,0,0,1,4.07.05l26,26.55a14.39,14.39,0,0,1,19.35,13.51Z" style="fill:#008e89"/><path d="M210.64,322.38a14.39,14.39,0,1,1-28.21-4L172.1,307.84a4.06,4.06,0,0,1,.06-5.75l3.47-3.4a4.06,4.06,0,0,1,5.75.06l9.91,10.11a14.42,14.42,0,0,1,19.35,13.52Z" style="fill:#008e89"/><path d="M377.16,177.57a14.39,14.39,0,0,1-28.78,0,14.07,14.07,0,0,1,1-5.21,14.39,14.39,0,0,1,27.8,5.21Z" style="fill:#565050"/><path d="M359.05,163.67a14.37,14.37,0,0,0-9.69,8.69l-61.61-62.69a4.35,4.35,0,0,1,.05-6.16l3.06-3a4.36,4.36,0,0,1,6.16.06Z" style="fill:#565050"/><path d="M418.55,157.22a14.39,14.39,0,1,1-28.78,0,14.57,14.57,0,0,1,.87-5,14.41,14.41,0,0,1,9.53-8.86,14.37,14.37,0,0,1,18.38,13.82Z" style="fill:#008e89"/><path d="M400.17,143.4a14.41,14.41,0,0,0-9.53,8.86L306.52,69.87a2.45,2.45,0,0,1,0-3.47l5.66-5.78a2.45,2.45,0,0,1,3.47,0Z" style="fill:#008e89"/><path d="M437.44,117.91a14.4,14.4,0,1,1-27.81-5.22l-62.88-64a2.52,2.52,0,0,1,0-3.58l5.65-5.56a2.54,2.54,0,0,1,3.59,0L419.32,104a14.21,14.21,0,0,1,3.72-.49A14.4,14.4,0,0,1,437.44,117.91Z" style="fill:#565050"/><path d="M458,76.6a14.39,14.39,0,1,1-27.9-5L403.16,45.26a3.4,3.4,0,0,1-.05-4.83L407.42,36a3.42,3.42,0,0,1,4.83-.05l27.36,26.8a14.25,14.25,0,0,1,4-.57A14.4,14.4,0,0,1,458,76.6Z" style="fill:#008e89"/><path d="M336.45,196.1a14.39,14.39,0,1,1-28.78,0,14.34,14.34,0,0,1,10.41-13.83,14.12,14.12,0,0,1,4-.56A14.39,14.39,0,0,1,336.45,196.1Z" style="fill:#008e89"/><path d="M318.08,182.27a14.49,14.49,0,0,0-9.54,8.87l-11.15-10.93a3.23,3.23,0,0,1-.05-4.57l4.58-4.67a3.21,3.21,0,0,1,4.56-.05Z" style="fill:#008e89"/><text transform="translate(226.93 362.44)" style="font-size:124px;fill:#203239;font-family:Ebrima-Bold, Ebrima;font-weight:700">SIGLAB</text><text transform="translate(234.37 439.5)" style="font-size:65px;fill:#203239;font-family:AgencyFB-Reg, Agency FB;letter-spacing:0.05500300480769231em">LABORATORIOS</text><rect x="229.67" y="370.23" width="414.94" height="6.3" style="fill:#008e89"/></g></g></svg>